<svg xmlns="http://www.w3.org/2000/svg" xmlns:xlink="http://www.w3.org/1999/xlink" width="273" height="276" viewBox="0 0 273 276">
  <defs>
    <linearGradient id="linear-gradient" x1="0.356" y1="1" x2="1.142" y2="1" gradientUnits="objectBoundingBox">
      <stop offset="0" stop-color="#ae00c9"/>
      <stop offset="1" stop-color="#730094"/>
    </linearGradient>
    <linearGradient id="linear-gradient-2" x1="2.605" y1="0" x2="0.407" y2="0" xlink:href="#linear-gradient"/>
  </defs>
  <g id="AS-Logo" transform="translate(-225.5 -121)">
    <rect id="Rectangle_1" data-name="Rectangle 1" width="251" height="250" transform="translate(240 127)" fill="none"/>
    <text id="A" transform="translate(271 312)" fill="#730094" font-size="270" font-family="Gabriola"><tspan x="0" y="0">A</tspan></text>
    <text id="S" transform="translate(401 342)" fill="#ae00c9" font-size="170" font-family="Gabriola"><tspan x="0" y="0">S</tspan></text>
    <path id="Icon_material-camera" data-name="Icon material-camera" d="M23.519,26.57l13.227-22.9A28.576,28.576,0,0,0,30.729,3,27.685,27.685,0,0,0,13.2,9.239L23.353,26.847ZM57.182,22.41A27.8,27.8,0,0,0,40.545,4.83L30.4,22.41Zm.721,2.773H37.134l.8,1.386,13.2,22.876a27.481,27.481,0,0,0,7.32-18.717A28.072,28.072,0,0,0,57.9,25.183ZM21.135,30.729,10.32,12.012A27.611,27.611,0,0,0,3,30.729a28.072,28.072,0,0,0,.555,5.546H24.324ZM4.276,39.048a27.8,27.8,0,0,0,16.637,17.58l10.149-17.58H4.276Zm31.25,0L24.712,57.792a28.576,28.576,0,0,0,6.017.666,27.685,27.685,0,0,0,17.525-6.239L38.1,34.611Z" transform="translate(432.542 120.542)" fill="#ae00c9"/>
    <rect id="Rectangle_2" data-name="Rectangle 2" width="199" height="22" rx="11" transform="translate(226 121)" fill="#ae00c9"/>
    <rect id="Rectangle_5" data-name="Rectangle 5" width="198" height="22" rx="11" transform="translate(498.5 187.5) rotate(90)" fill="#730094"/>
    <rect id="Rectangle_3" data-name="Rectangle 3" width="264" height="22" rx="11" transform="translate(247.5 121.5) rotate(90)" fill="url(#linear-gradient)"/>
    <rect id="Rectangle_4" data-name="Rectangle 4" width="272" height="22" rx="11" transform="translate(497.5 385.5) rotate(180)" fill="url(#linear-gradient-2)"/>
  </g>
</svg>
