<svg xmlns="http://www.w3.org/2000/svg" width="55.458" height="55.458" viewBox="0 0 55.458 55.458">
  <path id="Icon_material-camera" data-name="Icon material-camera" d="M23.519,26.57l13.227-22.9A28.576,28.576,0,0,0,30.729,3,27.685,27.685,0,0,0,13.2,9.239L23.353,26.847ZM57.182,22.41A27.8,27.8,0,0,0,40.545,4.83L30.4,22.41Zm.721,2.773H37.134l.8,1.386,13.2,22.876a27.481,27.481,0,0,0,7.32-18.717A28.072,28.072,0,0,0,57.9,25.183ZM21.135,30.729,10.32,12.012A27.611,27.611,0,0,0,3,30.729a28.072,28.072,0,0,0,.555,5.546H24.324ZM4.276,39.048a27.8,27.8,0,0,0,16.637,17.58l10.149-17.58H4.276Zm31.25,0L24.712,57.792a28.576,28.576,0,0,0,6.017.666,27.685,27.685,0,0,0,17.525-6.239L38.1,34.611Z" transform="translate(-3 -3)" fill="#ae00c9"/>
</svg>
